<svg width="165" height="93" viewBox="0 0 165 93" fill="none" xmlns="http://www.w3.org/2000/svg">
<rect x="4" y="32" width="157" height="29" fill="white"/>
<path d="M11.918 38.8672C14.0898 38.8672 15.7148 39.3398 16.793 40.2852C17.8789 41.2305 18.4219 42.5742 18.4219 44.3164C18.4219 45.0977 18.3086 45.8477 18.082 46.5664C17.8633 47.2852 17.5 47.9258 16.9922 48.4883C16.4922 49.0508 15.8242 49.4961 14.9883 49.8242C14.1602 50.1523 13.1367 50.3164 11.918 50.3164H10.6172V56H5.98828V38.8672H11.918ZM11.8125 42.6055H10.6172V46.543H11.5312C11.9297 46.543 12.3008 46.4766 12.6445 46.3438C12.9883 46.2031 13.2617 45.9805 13.4648 45.6758C13.6758 45.3633 13.7812 44.9492 13.7812 44.4336C13.7812 43.8945 13.6211 43.457 13.3008 43.1211C12.9805 42.7773 12.4844 42.6055 11.8125 42.6055ZM26.8594 42.4883C28.1484 42.4883 29.2617 42.7148 30.1992 43.168C31.1367 43.6133 31.8594 44.2852 32.3672 45.1836C32.875 46.082 33.1289 47.207 33.1289 48.5586V50.5977H24.9375C24.9766 51.293 25.2344 51.8633 25.7109 52.3086C26.1953 52.7539 26.9062 52.9766 27.8438 52.9766C28.6719 52.9766 29.4297 52.8945 30.1172 52.7305C30.8125 52.5664 31.5273 52.3125 32.2617 51.9688V55.2617C31.6211 55.5977 30.9219 55.8438 30.1641 56C29.4062 56.1562 28.4492 56.2344 27.293 56.2344C25.957 56.2344 24.7617 55.9961 23.707 55.5195C22.6523 55.043 21.8203 54.3047 21.2109 53.3047C20.6094 52.3047 20.3086 51.0195 20.3086 49.4492C20.3086 47.8555 20.582 46.5469 21.1289 45.5234C21.6758 44.4922 22.4414 43.7305 23.4258 43.2383C24.4102 42.7383 25.5547 42.4883 26.8594 42.4883ZM27.0234 45.6055C26.4844 45.6055 26.0312 45.7773 25.6641 46.1211C25.3047 46.457 25.0938 46.9883 25.0312 47.7148H28.9688C28.9609 47.3242 28.8828 46.9688 28.7344 46.6484C28.5859 46.3281 28.3672 46.0742 28.0781 45.8867C27.7969 45.6992 27.4453 45.6055 27.0234 45.6055ZM43.7344 42.4883C43.9844 42.4883 44.2461 42.5078 44.5195 42.5469C44.793 42.5781 44.9961 42.6055 45.1289 42.6289L44.7188 46.9531C44.5703 46.9141 44.3789 46.8828 44.1445 46.8594C43.9102 46.8281 43.582 46.8125 43.1602 46.8125C42.8711 46.8125 42.5625 46.8398 42.2344 46.8945C41.9062 46.9492 41.5938 47.0664 41.2969 47.2461C41.0078 47.418 40.7695 47.6836 40.582 48.043C40.3945 48.3945 40.3008 48.8711 40.3008 49.4727V56H35.7188V42.7227H39.1289L39.8438 44.8438H40.0664C40.3086 44.4062 40.6172 44.0117 40.9922 43.6602C41.375 43.3008 41.8008 43.0156 42.2695 42.8047C42.7461 42.5938 43.2344 42.4883 43.7344 42.4883ZM59.9062 42.7227V56H56.4492L55.875 54.3477H55.6055C55.332 54.793 54.9844 55.1562 54.5625 55.4375C54.1484 55.7109 53.6875 55.9102 53.1797 56.0352C52.6719 56.168 52.1445 56.2344 51.5977 56.2344C50.7305 56.2344 49.9453 56.0664 49.2422 55.7305C48.5469 55.3945 47.9922 54.8672 47.5781 54.1484C47.1719 53.4297 46.9688 52.5039 46.9688 51.3711V42.7227H51.5508V49.9766C51.5508 50.8359 51.6719 51.4922 51.9141 51.9453C52.1641 52.3906 52.5703 52.6133 53.1328 52.6133C53.7109 52.6133 54.1562 52.457 54.4688 52.1445C54.7891 51.832 55.0117 51.3711 55.1367 50.7617C55.2617 50.1523 55.3242 49.4102 55.3242 48.5352V42.7227H59.9062ZM80.0859 56L79.2422 52.7891H73.6758L72.8086 56H67.7227L73.3125 38.7969H79.4883L85.1484 56H80.0859ZM78.2812 48.9922L77.543 46.1797C77.4648 45.875 77.3516 45.4414 77.2031 44.8789C77.0547 44.3086 76.9062 43.7227 76.7578 43.1211C76.6172 42.5117 76.5078 42.0117 76.4297 41.6211C76.3594 42.0117 76.2578 42.4961 76.125 43.0742C76 43.6445 75.8672 44.2109 75.7266 44.7734C75.5938 45.3359 75.4766 45.8047 75.375 46.1797L74.6367 48.9922H78.2812ZM91.3242 37.7656V41.8906C91.3242 42.3594 91.3086 42.8086 91.2773 43.2383C91.2461 43.6602 91.207 44.0586 91.1602 44.4336H91.3242C91.668 43.8945 92.1172 43.4375 92.6719 43.0625C93.2266 42.6797 93.9531 42.4883 94.8516 42.4883C96.2344 42.4883 97.3633 43.0742 98.2383 44.2461C99.1211 45.418 99.5625 47.1133 99.5625 49.332C99.5625 50.8398 99.3594 52.1094 98.9531 53.1406C98.5469 54.1641 97.9766 54.9375 97.2422 55.4609C96.5156 55.9766 95.6719 56.2344 94.7109 56.2344C93.7734 56.2344 93.0586 56.0742 92.5664 55.7539C92.082 55.4258 91.668 55.0742 91.3242 54.6992H91.043L90.3164 56H86.7422V37.7656H91.3242ZM93.1758 46.0859C92.7539 46.0859 92.4062 46.1836 92.1328 46.3789C91.8594 46.5742 91.6562 46.8789 91.5234 47.293C91.3906 47.6992 91.3242 48.2188 91.3242 48.8516V49.4961C91.3242 50.5273 91.4609 51.293 91.7344 51.793C92.0156 52.293 92.5117 52.543 93.2227 52.543C93.7617 52.543 94.1758 52.2656 94.4648 51.7109C94.7539 51.1562 94.8984 50.3477 94.8984 49.2852C94.8984 48.2227 94.7578 47.4258 94.4766 46.8945C94.1953 46.3555 93.7617 46.0859 93.1758 46.0859ZM106.793 42.7227V56H102.211V42.7227H106.793ZM104.52 37.3789C105.176 37.3789 105.746 37.5156 106.23 37.7891C106.723 38.0625 106.969 38.6055 106.969 39.418C106.969 40.207 106.723 40.7422 106.23 41.0234C105.746 41.2969 105.176 41.4336 104.52 41.4336C103.848 41.4336 103.273 41.2969 102.797 41.0234C102.328 40.7422 102.094 40.207 102.094 39.418C102.094 38.6055 102.328 38.0625 102.797 37.7891C103.273 37.5156 103.848 37.3789 104.52 37.3789ZM115.969 42.4883C117.258 42.4883 118.371 42.7148 119.309 43.168C120.246 43.6133 120.969 44.2852 121.477 45.1836C121.984 46.082 122.238 47.207 122.238 48.5586V50.5977H114.047C114.086 51.293 114.344 51.8633 114.82 52.3086C115.305 52.7539 116.016 52.9766 116.953 52.9766C117.781 52.9766 118.539 52.8945 119.227 52.7305C119.922 52.5664 120.637 52.3125 121.371 51.9688V55.2617C120.73 55.5977 120.031 55.8438 119.273 56C118.516 56.1562 117.559 56.2344 116.402 56.2344C115.066 56.2344 113.871 55.9961 112.816 55.5195C111.762 55.043 110.93 54.3047 110.32 53.3047C109.719 52.3047 109.418 51.0195 109.418 49.4492C109.418 47.8555 109.691 46.5469 110.238 45.5234C110.785 44.4922 111.551 43.7305 112.535 43.2383C113.52 42.7383 114.664 42.4883 115.969 42.4883ZM116.133 45.6055C115.594 45.6055 115.141 45.7773 114.773 46.1211C114.414 46.457 114.203 46.9883 114.141 47.7148H118.078C118.07 47.3242 117.992 46.9688 117.844 46.6484C117.695 46.3281 117.477 46.0742 117.188 45.8867C116.906 45.6992 116.555 45.6055 116.133 45.6055ZM132.844 42.4883C133.094 42.4883 133.355 42.5078 133.629 42.5469C133.902 42.5781 134.105 42.6055 134.238 42.6289L133.828 46.9531C133.68 46.9141 133.488 46.8828 133.254 46.8594C133.02 46.8281 132.691 46.8125 132.27 46.8125C131.98 46.8125 131.672 46.8398 131.344 46.8945C131.016 46.9492 130.703 47.0664 130.406 47.2461C130.117 47.418 129.879 47.6836 129.691 48.043C129.504 48.3945 129.41 48.8711 129.41 49.4727V56H124.828V42.7227H128.238L128.953 44.8438H129.176C129.418 44.4062 129.727 44.0117 130.102 43.6602C130.484 43.3008 130.91 43.0156 131.379 42.8047C131.855 42.5938 132.344 42.4883 132.844 42.4883ZM142.605 52.6133C143.02 52.6133 143.398 52.5703 143.742 52.4844C144.086 52.3984 144.445 52.2891 144.82 52.1562V55.4961C144.32 55.7148 143.789 55.8906 143.227 56.0234C142.672 56.1641 141.961 56.2344 141.094 56.2344C140.234 56.2344 139.477 56.1016 138.82 55.8359C138.164 55.5625 137.652 55.0938 137.285 54.4297C136.926 53.7578 136.746 52.8242 136.746 51.6289V46.1562H135.141V44.293L137.18 42.8516L138.363 40.0625H141.363V42.7227H144.621V46.1562H141.363V51.3242C141.363 51.7539 141.473 52.0781 141.691 52.2969C141.91 52.5078 142.215 52.6133 142.605 52.6133ZM159.82 49.332C159.82 50.4414 159.668 51.4258 159.363 52.2852C159.059 53.1445 158.617 53.8672 158.039 54.4531C157.461 55.0391 156.762 55.4844 155.941 55.7891C155.121 56.0859 154.195 56.2344 153.164 56.2344C152.203 56.2344 151.32 56.0859 150.516 55.7891C149.719 55.4844 149.023 55.0391 148.43 54.4531C147.836 53.8672 147.375 53.1445 147.047 52.2852C146.727 51.4258 146.566 50.4414 146.566 49.332C146.566 47.8633 146.832 46.6211 147.363 45.6055C147.902 44.5898 148.668 43.8164 149.66 43.2852C150.66 42.7539 151.852 42.4883 153.234 42.4883C154.508 42.4883 155.641 42.7539 156.633 43.2852C157.625 43.8164 158.402 44.5898 158.965 45.6055C159.535 46.6211 159.82 47.8633 159.82 49.332ZM151.219 49.332C151.219 50.0898 151.285 50.7305 151.418 51.2539C151.551 51.7695 151.762 52.1641 152.051 52.4375C152.348 52.7031 152.734 52.8359 153.211 52.8359C153.688 52.8359 154.066 52.7031 154.348 52.4375C154.629 52.1641 154.832 51.7695 154.957 51.2539C155.09 50.7305 155.156 50.0898 155.156 49.332C155.156 48.5742 155.09 47.9414 154.957 47.4336C154.832 46.9258 154.625 46.543 154.336 46.2852C154.055 46.0273 153.672 45.8984 153.188 45.8984C152.492 45.8984 151.988 46.1875 151.676 46.7656C151.371 47.3438 151.219 48.1992 151.219 49.332Z" fill="black"/>
<rect x="4" y="4" width="157" height="28" fill="#D91023"/>
<rect x="4" y="61" width="157" height="28" fill="#D91023"/>
<g style="mix-blend-mode:color-burn" filter="url(#filter0_f_35_56)">
<path d="M161 89H160.609V4L4 44.5L160.609 89H4V4H161V89Z" fill="url(#paint0_linear_35_56)"/>
</g>
<defs>
<filter id="filter0_f_35_56" x="0" y="0" width="165" height="93" filterUnits="userSpaceOnUse" color-interpolation-filters="sRGB">
<feFlood flood-opacity="0" result="BackgroundImageFix"/>
<feBlend mode="normal" in="SourceGraphic" in2="BackgroundImageFix" result="shape"/>
<feGaussianBlur stdDeviation="1" result="effect1_foregroundBlur_35_56"/>
</filter>
<linearGradient id="paint0_linear_35_56" x1="161" y1="46.5" x2="4" y2="46.5" gradientUnits="userSpaceOnUse">
<stop stop-opacity="0"/>
<stop offset="1" stop-opacity="0.6"/>
</linearGradient>
</defs>
</svg>
